<mxfile host="app.diagrams.net" modified="2024-01-09T13:28:07.690Z" agent="Mozilla/5.0 (Windows NT 10.0; Win64; x64; rv:121.0) Gecko/20100101 Firefox/121.0" version="22.1.17" etag="_9B-bm57V362IKhB6VXZ" type="github">
  <diagram name="Страница — 1" id="6utT0g3_bH7t-wTEzndB">
    <mxGraphModel>
      <root>
        <mxCell id="0" />
        <mxCell id="1" parent="0" />
      </root>
    </mxGraphModel>
  </diagram>
</mxfile>
